# xmcd
#
# Track frame offsets: 
#        182
#        12510
#        24920
#        34967
#        49967
#        63937
#        75767
#        86822
#        99725
#        113250
#
# Disc length: 1659 seconds
#
# Revision: 3
# Processed by: cddbd v1.5.2PL0 Copyright (c) Steve Scherf et al.
# Submitted via: ExactAudioCopyFreeDBPlugin 1.0
#
DISCID=6e06790a
DTITLE=The Drifters - Under the Boardwalk and Other Hits
DYEAR=1997
DGENRE=Rhythm and Blues
TTITLE0=Under the Boardwalk
TTITLE1=I'll Take You Home
TTITLE2=Rat Race
TTITLE3=Vaya Con Dios
TTITLE4=On Broadway
TTITLE5=Up on the Roof
TTITLE6=One Way Love
TTITLE7=I've Got Sand in My Shoes
TTITLE8=At the Club
TTITLE9=Saturday Night at the Movies
EXTD=YEAR: 1997 ID3G: 11
EXTT0=
EXTT1=
EXTT2=
EXTT3=
EXTT4=
EXTT5=
EXTT6=
EXTT7=
EXTT8=
EXTT9=
PLAYORDER=
